<svg width="382" height="180" viewBox="0 0 382 180" fill="none" xmlns="http://www.w3.org/2000/svg">
<rect x="202" width="180" height="180" rx="90" fill="#DDDDDD"/>
<path d="M244.669 116.854C258.409 116.854 266.544 108.72 266.544 95.2871V89.6133H245.216V97.3037H256.495L256.461 98.0215C256.188 104.105 251.573 108.104 244.84 108.104C236.637 108.104 231.441 101.781 231.441 91.083V91.0488C231.441 80.5898 236.329 74.5742 244.464 74.5742C250.035 74.5742 253.966 77.3428 255.606 82.1279L255.743 82.4697H266.1L265.997 81.9912C264.356 72.7285 256.29 65.8242 244.43 65.8242C229.972 65.8242 220.914 75.3604 220.914 91.1514V91.1855C220.914 107.25 229.938 116.854 244.669 116.854ZM272.368 116H283.203L286.929 104.037H304.36L308.086 116H318.921L301.729 66.6787H289.595L272.368 116ZM295.542 76.249H295.747L301.968 96.3125H289.321L295.542 76.249ZM327.479 116H337.802V100.448H347.304C357.694 100.448 364.633 93.749 364.633 83.5977V83.5293C364.633 73.3779 357.694 66.6787 347.304 66.6787H327.479V116ZM344.774 74.8477C350.688 74.8477 354.174 77.958 354.174 83.5635V83.6318C354.174 89.2373 350.688 92.3818 344.774 92.3818H337.802V74.8477H344.774Z" fill="#34529E"/>
<path d="M26.209 116.854C38.1377 116.854 46.7852 109.369 47.7422 98.876L47.7764 98.5H37.7275L37.6592 98.8418C36.3262 104.687 32.1562 108.104 26.209 108.104C18.3135 108.104 13.2549 101.679 13.2549 91.2881V91.2539C13.2549 80.9316 18.3135 74.5742 26.209 74.5742C32.3613 74.5742 36.3945 78.1289 37.5566 83.5635L37.6934 84.1445H47.7422L47.708 83.8369C46.751 73.3779 38.1719 65.8242 26.209 65.8242C11.8193 65.8242 2.72754 75.3945 2.72754 91.2881V91.3223C2.72754 107.216 11.7852 116.854 26.209 116.854ZM79.9189 116.854C94.582 116.854 103.708 107.045 103.708 91.3564V91.2881C103.708 75.6338 94.5479 65.8242 79.9189 65.8242C65.3242 65.8242 56.1299 75.5996 56.1299 91.2881V91.3564C56.1299 107.045 65.2559 116.854 79.9189 116.854ZM79.9189 108.104C71.8184 108.104 66.6572 101.679 66.6572 91.3564V91.2881C66.6572 80.9658 71.8525 74.5742 79.9189 74.5742C88.0195 74.5742 93.1807 81 93.1807 91.2881V91.3564C93.1807 101.576 88.1221 108.104 79.9189 108.104ZM113.873 116H124.195V66.6787H113.873V116ZM135.898 116H146.187V83.7002H146.392L168.745 116H177.7V66.6787H167.412V98.7393H167.207L144.922 66.6787H135.898V116Z" fill="white"/>
</svg>
